# xmcd CD database file
#
# Track frame offsets:
#	150
#	15820
#	27883
#	46368
#	59758
#	74541
#	86367
#	106487
#	118112
#	129640
#
# Disc length: 1902 seconds
#
# Revision: 0
# Processed by: cddbd v1.5.1PL0 Copyright (c) Steve Scherf et al.
# Submitted via: CDex 1.50
#
DISCID=84076c0a
DTITLE=Souvenirs Country - vol 3
DYEAR=2001
DGENRE=Country
TTITLE0=Je bois pour oublier
TTITLE1=Les cowboys du Quebec
TTITLE2=Blues roses
TTITLE3=Si tu pars
TTITLE4=L'hotel et la boisson
TTITLE5=Un jour a la fois
TTITLE6=J'ai oublier de vivre
TTITLE7=Je m'ennuie de toi
TTITLE8=Jambalaya
TTITLE9=Je fais semblant
EXTD=YEAR: 2001
EXTT0=
EXTT1=
EXTT2=
EXTT3=
EXTT4=
EXTT5=
EXTT6=
EXTT7=
EXTT8=
EXTT9=
PLAYORDER=
